<?xml version="1.0" standalone="no"?>
<!DOCTYPE svg PUBLIC "-//W3C//DTD SVG 20010904//EN"
 "http://www.w3.org/TR/2001/REC-SVG-20010904/DTD/svg10.dtd">
<svg version="1.0" xmlns="http://www.w3.org/2000/svg"
 width="892.000000pt" height="1280.000000pt" viewBox="0 0 892.000000 1280.000000"
 preserveAspectRatio="xMidYMid meet">
<metadata>
Created by potrace 1.15, written by Peter Selinger 2001-2017
</metadata>
<g transform="translate(0.000000,1280.000000) scale(0.100000,-0.100000)"
fill="#192144" stroke="none">
<path d="M7384 12778 c-12 -13 -562 -837 -1221 -1833 -660 -995 -2244 -3385
-3520 -5310 -1276 -1925 -2325 -3510 -2331 -3522 -7 -12 -12 -34 -12 -50 0
-42 -243 -1680 -291 -1965 -13 -73 -3 -102 31 -96 9 2 147 83 306 181 159 97
561 342 893 545 l604 367 1551 2340 c853 1287 2440 3681 3526 5319 1086 1638
1981 2990 1988 3003 27 49 11 67 -156 177 -86 56 -413 273 -727 481 -313 209
-581 381 -595 383 -17 2 -32 -4 -46 -20z m-5817 -11589 c62 -41 112 -76 112
-79 0 -3 -212 -134 -471 -291 l-472 -286 -252 166 c-213 140 -253 170 -253
190 -1 24 147 1044 154 1068 3 8 217 -128 537 -340 293 -194 584 -387 645
-428z"/>
</g>
</svg>
